<svg xmlns="http://www.w3.org/2000/svg" xml:space="preserve" width="163.839" height="163.839" fill-rule="evenodd" clip-rule="evenodd" image-rendering="optimizeQuality" shape-rendering="geometricPrecision" text-rendering="geometricPrecision" viewBox="0 0 4335 4335" id="flower">
  <path fill="#f60" d="M1085 1763h46c-11-11-22-21-33-32-405-405-604-864-443-1025s619 38 1025 443c11 11 22 22 32 33v-46c0-573 184-1038 411-1038s411 465 411 1038v46c11-11 21-22 32-33 405-405 864-604 1025-443s-38 619-443 1025c-11 11-22 22-33 32h46c573 0 1038 184 1038 411s-465 411-1038 411h-46c11 11 22 21 33 32 405 405 604 864 443 1025s-619-38-1025-443c-11-11-22-22-32-33v46c0 573-184 1038-411 1038s-411-465-411-1038v-46c-11 11-21 22-32 33-405 405-864 604-1025 443s38-619 443-1025c11-11 22-22 33-32h-46c-573 0-1038-184-1038-411s465-411 1038-411zm1038-137c303 0 548 246 548 548 0 303-246 548-548 548-303 0-548-246-548-548 0-303 246-548 548-548z"></path>
</svg>
